<svg xmlns="http://www.w3.org/2000/svg" version="1.1" xmlns:xlink="http://www.w3.org/1999/xlink" xmlns:svgjs="http://svgjs.com/svgjs" width="1440" height="560" preserveAspectRatio="none" viewBox="0 0 1440 560"><g mask="url(&quot;#SvgjsMask1019&quot;)" fill="none"><rect width="1440" height="560" x="0" y="0" fill="url(#SvgjsLinearGradient1020)"></rect><path d="M1139.51 114.42 a47.97 47.97 0 1 0 95.94 0 a47.97 47.97 0 1 0 -95.94 0z" stroke="#037b0b"></path><path d="M491.66 123.19 a53.87 53.87 0 1 0 107.74 0 a53.87 53.87 0 1 0 -107.74 0z" stroke="#037b0b"></path><path d="M707.65 115.84 a15.71 15.71 0 1 0 31.42 0 a15.71 15.71 0 1 0 -31.42 0z" stroke="#d3b714"></path><path d="M866.46 291.08a15.08 15.08 0 1 0 30.08 2.06z" fill="#037b0b"></path><path d="M398.66 86.69L447.92 86.69L447.92 87.21L398.66 87.21z" fill="#037b0b"></path><path d="M809.47 141.27a20.08 20.08 0 1 0 27.95 28.84z" stroke="#d3b714"></path><path d="M1192.13 188.46 a42.22 42.22 0 1 0 84.44 0 a42.22 42.22 0 1 0 -84.44 0z" stroke="#e73635"></path><path d="M75.28 402.83L103.41 402.83L103.41 418.78L75.28 418.78z" fill="#e73635"></path><path d="M96.92 129.1L123.66 129.1L123.66 154.41L96.92 154.41z" stroke="#e73635"></path><path d="M617.21 451.97L661.32 451.97L661.32 496.08L617.21 496.08z" stroke="#e73635"></path><path d="M108.94 501.45L120.95 501.45L120.95 556.48L108.94 556.48z" stroke="#037b0b"></path><path d="M1246.71 117.72L1284.42 117.72L1284.42 155.43L1246.71 155.43z" fill="#d3b714"></path><path d="M199.79 175.36L242.84 175.36L242.84 186.61L199.79 186.61z" stroke="#037b0b"></path><path d="M625.05 131.41a33.14 33.14 0 1 0-53.26-39.45z" fill="#d3b714"></path><path d="M1163.17 27.13 a6.54 6.54 0 1 0 13.08 0 a6.54 6.54 0 1 0 -13.08 0z" fill="#d3b714"></path><path d="M551.1 236.66L601.87 236.66L601.87 287.43L551.1 287.43z" stroke="#037b0b"></path><path d="M222.6 337.19a42.6 42.6 0 1 0-52.17 67.36z" fill="#037b0b"></path><path d="M417.8 425.97 a48.66 48.66 0 1 0 97.32 0 a48.66 48.66 0 1 0 -97.32 0z" stroke="#037b0b"></path><path d="M959.37 209.77L983.49 209.77L983.49 232.79L959.37 232.79z" stroke="#d3b714"></path><path d="M880.79 66.12L882.98 66.12L882.98 68.31L880.79 68.31z" fill="#e73635"></path><path d="M624.56 16.98L674.7 16.98L674.7 67.12L624.56 67.12z" fill="#037b0b"></path><path d="M817.48 466.92L857.44 466.92L857.44 513.04L817.48 513.04z" fill="#d3b714"></path><path d="M644.37 232.96 a21.11 21.11 0 1 0 42.22 0 a21.11 21.11 0 1 0 -42.22 0z" stroke="#e73635"></path><path d="M147.97 523.91 a2.13 2.13 0 1 0 4.26 0 a2.13 2.13 0 1 0 -4.26 0z" stroke="#d3b714"></path><path d="M851.96 31.38a12.62 12.62 0 1 0 5.81 24.56z" fill="#037b0b"></path><path d="M342.78 507.77L395.09 507.77L395.09 533.33L342.78 533.33z" fill="#037b0b"></path><path d="M302.79 173.31L336.04 173.31L336.04 219.27L302.79 219.27z" stroke="#d3b714"></path><path d="M893.44 76.99 a47.81 47.81 0 1 0 95.62 0 a47.81 47.81 0 1 0 -95.62 0z" stroke="#d3b714"></path><path d="M1158.13 412.55L1203.29 412.55L1203.29 453.54L1158.13 453.54z" fill="#d3b714"></path><path d="M315.52 527.76a18.1 18.1 0 1 0-3.64 36.02z" stroke="#d3b714"></path><path d="M825.78 352.12L829.56 352.12L829.56 355.9L825.78 355.9z" fill="#e73635"></path><path d="M587.31 374.84L629.25 374.84L629.25 416.78L587.31 416.78z" fill="#d3b714"></path><path d="M59.42 53.06 a19.29 19.29 0 1 0 38.58 0 a19.29 19.29 0 1 0 -38.58 0z" stroke="#e73635"></path></g><defs><mask id="SvgjsMask1019"><rect width="1440" height="560" fill="#ffffff"></rect></mask><linearGradient x1="15.28%" y1="139.29%" x2="84.72%" y2="-39.29%" gradientUnits="userSpaceOnUse" id="SvgjsLinearGradient1020"><stop stop-color="#0e2a47" offset="0"></stop><stop stop-color="rgba(16, 55, 132, 1)" offset="1"></stop></linearGradient></defs></svg>